<svg version="1.1" xmlns="http://www.w3.org/2000/svg" style="display: block;" viewBox="0 0 2048 2048" width="1024" height="1024" preserveAspectRatio="none">
<path transform="translate(0,0)" fill="rgb(30,79,118)" d="M 146.557 1029.5 C 164.439 1034.69 189.708 1042.32 206.752 1048.92 C 209.026 1080.99 230.682 1124.61 252.532 1147.93 C 294.135 1192.34 334.646 1210.12 394.083 1213.16 C 393.964 1232.47 393.951 1251.79 394.042 1271.1 C 384.207 1270.81 372.667 1270.45 363.051 1268.81 L 361.574 1268.62 C 358.313 1265.74 353.855 1244.12 352.312 1237.82 C 320.106 1232.37 297.346 1220.11 270.598 1202.99 C 262.646 1206.97 251.119 1214.73 243.301 1219.67 C 226.093 1206.98 208.381 1189.41 196.056 1172.01 C 201.906 1163.1 207.638 1154.12 213.249 1145.06 C 211.208 1141.23 208.277 1136.83 205.968 1133.07 C 192.877 1111.76 185.285 1090.02 179.425 1065.86 C 169.46 1062.64 158.799 1059.75 148.686 1056.93 C 147.666 1047.28 146.924 1039.27 146.557 1029.5 z"/>
<path transform="translate(0,0)" fill="rgb(83,167,91)" d="M 618.231 1023.45 C 626.658 1023.3 632.981 1023.52 641.413 1024.05 C 641.321 1036.82 640.708 1043.73 638.834 1056.44 C 632.682 1058.98 614.952 1063.64 607.67 1065.86 C 600.884 1099.15 592.033 1116.96 574.681 1145.86 C 579.312 1154.09 586.348 1164.22 591.623 1172.29 C 581.075 1187.79 559.431 1207.92 544.467 1219.78 C 536.13 1214.76 526.659 1208.3 518.187 1202.96 C 491.643 1220.28 467.376 1232.64 435.668 1236.64 L 433.403 1244.25 C 431.712 1252.03 429.804 1259.91 427.997 1267.68 C 419.527 1269.04 408.318 1269.63 399.59 1270.32 C 406.307 1252.8 414.188 1229.43 418.617 1211.48 C 443.081 1206.85 461.583 1202.87 483.591 1190.51 C 547.533 1154.58 579.299 1095.33 582.857 1023.74 C 594.649 1023.92 606.443 1023.82 618.231 1023.45 z"/>
<path transform="translate(0,0)" fill="rgb(42,133,182)" d="M 377.511 777.417 L 388.02 777.01 C 381.908 795.671 373.857 817.157 369.739 836.202 C 272.018 849.715 209.112 926.469 204.485 1023.43 C 184.996 1023.45 165.508 1023.57 146.021 1023.81 C 146.307 1018.06 146.887 1011.96 147.345 1006.19 L 149.76 990.698 C 160.189 987.182 169.837 984.974 180.513 982.4 C 184.914 953.491 196.225 926.071 213.486 902.467 C 209.111 894.56 201.494 883.093 196.555 875.205 C 208.496 857.225 225.389 841.711 242.434 828.649 C 251.937 832.619 260.89 838.838 269.862 844.204 C 294.933 827.973 322.145 814.86 351.916 810.235 C 358.975 787.92 352.008 778.747 377.511 777.417 z"/>
<path transform="translate(0,0)" fill="rgb(242,135,38)" d="M 394.06 776.861 C 406.07 777.039 416.359 777.104 428.331 778.405 C 431.003 789.542 433.387 799.185 436.748 810.156 C 472.47 816.142 488.825 827.241 519.203 843.918 C 526.625 839.679 534.284 832.82 543.173 827.726 C 560.082 837.065 578.675 859.092 590.944 873.643 C 587.235 881.671 579.699 892.586 574.762 900.533 C 584.371 920.986 592.177 929.934 600.514 953.762 C 603.85 962.515 605.242 967.809 606.657 976.941 C 597.004 977.186 587.299 977.628 577.676 976.931 C 565.944 940.439 549.762 910.494 521.178 884.455 C 487.243 853.541 440.508 832.251 393.94 834.831 L 394.06 776.861 z"/>
<path transform="translate(0,0)" fill="rgb(242,135,38)" d="M 1844.8 962.284 C 1855.62 961.601 1866.35 962.07 1875.75 968.388 C 1909.52 991.083 1910.44 1063.08 1875.41 1084.94 C 1868.98 1088.96 1862.93 1090.53 1855.63 1091.77 C 1796.76 1094.73 1787.46 1021.03 1811.49 981.593 C 1819.03 969.228 1831.23 964.585 1844.8 962.284 z M 1853.65 1067.3 C 1876.02 1060.55 1876.67 1024.86 1871.35 1006.04 C 1868.2 994.907 1861.77 986.885 1849.75 986.169 C 1832.84 989.365 1828.38 1004.51 1827 1019.78 C 1825.36 1037.99 1827.53 1065.89 1850.98 1067.16 L 1852.65 1067.26 C 1852.98 1067.28 1853.31 1067.29 1853.65 1067.3 z"/>
<path transform="translate(0,0)" fill="rgb(42,133,182)" d="M 393.316 851.938 C 432.686 854.689 463.831 862.657 496.349 887.039 C 526.242 909.452 555.857 952.519 560.458 990.23 C 570.561 989.027 575.916 989.039 586.295 989.123 C 582.449 994.106 575.916 1006.11 572.5 1011.99 C 563.703 1027.02 555.038 1042.12 546.505 1057.31 L 540.753 1048.52 C 528.545 1028.91 516.106 1009.44 503.438 990.12 L 527.539 990.073 C 522.912 973.06 515.257 957.021 504.941 942.723 C 482.209 911.058 450.106 892.686 412.061 886.409 C 408.558 894.378 397.633 912.267 392.983 920.351 C 394.721 905.062 393.997 868.125 393.316 851.938 z"/>
<path transform="translate(0,0)" fill="rgb(242,135,38)" d="M 1488.47 955.97 L 1515.28 956.006 C 1515.35 971.04 1515.6 986.074 1516.02 1001.1 C 1523.69 995.109 1528.48 992.051 1538.93 991.355 C 1550.62 990.499 1562.15 994.492 1570.8 1002.4 C 1584.53 1015.01 1588.47 1035.38 1585.55 1053.23 C 1583.75 1064.2 1578.59 1071.81 1571.3 1079.77 C 1550.79 1097.04 1532.73 1095.21 1513.21 1078.71 L 1512.95 1089.97 L 1488.89 1090.16 C 1487.93 1045.88 1488.89 1000.43 1488.47 955.97 z M 1539.71 1068.09 C 1569.04 1059.95 1566.37 1017.78 1535.1 1014.29 C 1529.32 1015.45 1522.63 1018.6 1519.76 1023.78 C 1508.96 1043.24 1515.45 1067.31 1539.71 1068.09 z"/>
<path transform="translate(0,0)" fill="rgb(242,135,38)" d="M 1741.94 962.289 L 1743.7 962.166 C 1754.09 961.521 1775.83 961.086 1783.94 968.373 C 1785.8 974.209 1779.13 985.276 1776.12 991.701 C 1758.16 980.612 1736.57 982.32 1726.15 1002.04 C 1722.88 1008.24 1722.04 1014.31 1720.58 1021.11 C 1728.79 1013.36 1738.4 1009.28 1749.77 1009.35 C 1761.14 1009.35 1772.04 1013.91 1780.03 1021.99 C 1790.44 1032.7 1791.34 1042.8 1791.02 1056.53 C 1787 1072.97 1777.15 1086.94 1759.43 1090.5 C 1693.75 1103.69 1679.48 1028.16 1705.76 984.271 C 1713.37 971.57 1727.76 965.011 1741.94 962.289 z M 1725.58 1058.56 C 1729.44 1067.41 1739.09 1072.21 1748.48 1069.97 C 1755.54 1068.28 1761.12 1062.88 1763.05 1055.89 C 1764.98 1048.89 1762.96 1041.4 1757.76 1036.32 C 1752.57 1031.25 1745.03 1029.41 1738.08 1031.51 C 1732.63 1033.15 1728.14 1037.05 1725.75 1042.22 C 1723.36 1047.39 1723.3 1053.34 1725.58 1058.56 z"/>
<path transform="translate(0,0)" fill="rgb(30,79,118)" d="M 223.053 1024.02 C 246.152 1024.2 269.253 1024.09 292.349 1023.68 C 280.774 1028.75 268.22 1034.39 257.586 1041.17 C 262.01 1086.53 294.128 1128.37 334.449 1148.14 C 348.375 1154.97 360.799 1158.1 375.702 1161.6 C 379.209 1155.22 389.524 1136.23 393.43 1131.82 L 394.143 1132.95 C 393.238 1152.93 393.819 1175.94 393.867 1196.14 C 345.914 1193.26 309.178 1179.25 274.222 1145.27 C 242.455 1114.39 222.858 1068.53 223.053 1024.02 z"/>
<path transform="translate(0,0)" fill="rgb(30,79,118)" d="M 707.013 963.106 C 716.185 963.076 725.575 963.294 734.766 963.402 C 734.045 979.628 735.41 995.941 734.228 1012.17 C 751.375 1011.99 768.524 1012.01 785.671 1012.23 C 784.661 999.488 785.598 977.364 785.571 963.627 C 794.726 963.702 803.881 963.574 813.03 963.243 C 812.725 990.949 812.694 1018.66 812.937 1046.36 C 813 1058.75 813.643 1076.47 812.945 1088.48 L 811.682 1089.57 L 785.17 1089.43 L 785.105 1037.26 L 734.48 1037.39 C 735.102 1054.52 734.663 1072.63 734.505 1089.84 C 725.185 1089.92 716.368 1090.05 707.039 1089.58 L 707.013 963.106 z"/>
<path transform="translate(0,0)" fill="rgb(242,135,38)" d="M 1257.4 962.935 L 1285.01 963.026 L 1285.22 1012.05 C 1302.16 1012.22 1319.36 1012.06 1336.32 1012.05 C 1335.39 999.926 1335.31 975.03 1335.79 963.08 L 1362.91 963.045 C 1362.95 976.118 1364.22 1086.54 1362 1089.84 L 1357.25 1089.97 L 1335.42 1090.07 C 1335.14 1076.38 1334.3 1050.58 1335.71 1037.66 C 1320.6 1036.68 1300.33 1037.21 1285.07 1037.23 C 1285.36 1054.59 1285.15 1072.54 1285.18 1089.95 L 1258.08 1090.04 L 1257.4 962.935 z"/>
<path transform="translate(0,0)" fill="rgb(30,79,118)" d="M 1150.74 956.36 L 1177.11 956.296 C 1176.85 971.444 1176.98 986.963 1176.93 1002.14 C 1192.37 989.474 1215.03 985.166 1229.7 1000.2 C 1246.85 1017.78 1241.55 1065.93 1241.27 1089.61 L 1215.07 1089.72 L 1214.98 1044.5 C 1214.97 1037.92 1215.25 1025.9 1210.04 1021.8 C 1167.75 988.514 1176.82 1076.75 1176.93 1089.91 C 1168.25 1089.98 1159.5 1089.88 1150.82 1089.85 C 1149.94 1075.45 1150.43 1056.42 1150.44 1041.84 L 1150.74 956.36 z"/>
<path transform="translate(0,0)" fill="rgb(83,167,91)" d="M 374.113 854.253 L 376.756 854.467 C 378.497 857.87 377.39 880.82 377.256 886.649 C 311.975 894.511 266.876 943.744 257.418 1007.68 C 248.946 1006.95 238.401 1007.21 229.751 1007.2 L 226.548 1006.86 C 223.284 1003.43 227.134 990.037 228.106 985.608 C 233.634 960.404 244.007 938.32 260.047 918.041 C 288.064 882.444 329.116 859.486 374.113 854.253 z"/>
<path transform="translate(0,0)" fill="rgb(242,135,38)" d="M 1595.07 963.125 C 1622.83 962.886 1650.6 963.102 1678.35 963.773 C 1678.52 969.701 1678.21 975.723 1678.01 981.659 C 1671.63 991.099 1660.22 1004.26 1652.76 1013.64 C 1664.01 1017.29 1672.83 1022.24 1679.13 1032.78 C 1684.11 1041.02 1685.6 1050.91 1683.29 1060.25 C 1674.93 1093.35 1637.5 1095.53 1610.24 1089.01 C 1602.31 1086.67 1596.59 1083.58 1589.77 1079.08 C 1592.22 1071.8 1596.33 1062.82 1599.39 1055.6 C 1610.42 1061.85 1617.86 1066.09 1631.41 1067.71 C 1646.72 1069.55 1664.57 1056.2 1650.54 1041.69 C 1643.71 1034.63 1630.45 1035.51 1621.01 1035.89 C 1620.88 1028.21 1620.97 1022.58 1621.45 1014.93 C 1627.93 1006.56 1638.23 995.274 1645.32 986.965 C 1630.27 986.907 1609.64 986.452 1595.02 987.482 C 1594.88 979.449 1595.03 971.178 1595.07 963.125 z"/>
<path transform="translate(0,0)" fill="rgb(30,79,118)" d="M 868.588 991.32 C 881.894 989.606 898.641 993.648 907.853 1003.79 C 920.419 1017.64 921.218 1032.08 921.029 1049.67 C 898.2 1049.65 875.952 1049.07 853.076 1049.83 C 862.934 1073.39 881.52 1072.74 900.556 1060.19 L 902.691 1060.76 C 907.851 1065.95 911.332 1069.77 916.031 1075.39 C 908.199 1083.8 903.568 1087.74 891.139 1090.32 C 840.24 1100.86 809.297 1051.23 836.356 1009.32 C 843.026 998.988 855.971 993.256 868.588 991.32 z M 852.604 1032.36 C 860.984 1032.6 869.368 1032.65 877.75 1032.51 L 896.246 1032.61 C 891.808 1017.73 886.122 1012.68 870.314 1013.02 C 859.313 1017.54 855.848 1020.78 852.604 1032.36 z"/>
<path transform="translate(0,0)" fill="rgb(30,79,118)" d="M 964.723 991.349 C 967.056 991.164 969.395 991.054 971.735 991.019 C 1015.79 990.693 1016.21 1024.61 1014.92 1058.11 C 1014.54 1068.25 1014.8 1079.61 1014.74 1089.85 C 1007.02 1089.6 999.747 1090.38 991.954 1089.73 C 989.719 1087.56 990.404 1086.33 990 1082.26 C 986.835 1082.64 978.385 1091.07 968.075 1091.77 C 953.631 1092.75 946.793 1090.69 935.664 1081.94 C 931.279 1076.37 928.376 1069.12 928.578 1062.03 C 929.539 1028.32 966.862 1032.54 989.164 1032.94 C 984.936 1004.52 959.686 1012.65 941.391 1022.32 C 938.249 1015.81 935.568 1009.11 932.797 1002.43 C 943.927 994.813 951.827 993.31 964.723 991.349 z M 977.492 1070.62 C 988.655 1064 987.971 1061.67 988.719 1049.23 C 981.504 1049.16 972.8 1048.85 965.722 1049.19 C 945.318 1056.23 955.634 1075.88 977.492 1070.62 z"/>
<path transform="translate(0,0)" fill="rgb(242,135,38)" d="M 529.199 1051.61 C 532.737 1058.81 541.746 1071.57 546.867 1077.82 C 553.552 1068.48 557.623 1061.1 563.235 1051.11 C 547.459 1114.74 517.571 1156.76 455.732 1183.25 C 440.362 1189.68 426.221 1192.78 409.906 1195.44 C 409.527 1183.86 409.749 1172.9 409.964 1161.33 C 472.467 1151 513.103 1112.67 529.199 1051.61 z"/>
<path transform="translate(0,0)" fill="rgb(242,135,38)" d="M 1444.67 993.091 C 1453.4 993.164 1462.26 993.064 1471 993.048 C 1471.49 1004.21 1471.27 1016.5 1471.3 1027.75 C 1471.74 1048.66 1471.82 1069.57 1471.54 1090.48 C 1461.59 1089.86 1454.67 1092.37 1446.83 1088.99 C 1444.27 1085.38 1445.18 1085.63 1445.15 1080.16 C 1430.31 1093.22 1406.19 1097.51 1391.9 1081.62 C 1375.4 1063.26 1380.47 1018.05 1380.81 993.062 L 1407.13 993.06 C 1407.42 1012.64 1403.57 1044.03 1411.97 1061.48 C 1417.99 1073.99 1441.41 1064.96 1443.26 1053.11 C 1446.29 1033.7 1443.68 1013.18 1444.67 993.091 z"/>
<path transform="translate(0,0)" fill="rgb(242,135,38)" d="M 426.204 936.981 L 468.983 937.212 C 468.995 946.851 469.467 963.976 468.1 972.948 C 466.763 992.203 457.163 1009.68 442.74 1022.3 C 429.14 1034.38 411.537 1040.99 393.344 1040.83 L 393.216 1035.11 C 394.039 1026.2 394.198 1015.75 393.341 1006.84 L 401.006 1006.63 C 433.298 994.584 426.819 965.146 426.204 936.981 z"/>
<path transform="translate(0,0)" fill="rgb(83,167,91)" d="M 468.1 972.948 C 466.763 992.203 457.163 1009.68 442.74 1022.3 C 429.14 1034.38 411.537 1040.99 393.344 1040.83 L 393.216 1035.11 C 394.039 1026.2 394.198 1015.75 393.341 1006.84 L 401.006 1006.63 L 402.471 1008.18 C 407.685 1010.26 421.562 1009.11 426.784 1007.79 C 447.43 1002.53 457.495 989.773 468.1 972.948 z"/>
<path transform="translate(0,0)" fill="rgb(30,79,118)" d="M 320.614 1068.01 C 322.058 1057.41 330.043 1040.65 337.502 1032.74 C 354.654 1014.53 369.232 1008.63 393.341 1006.84 C 394.198 1015.75 394.039 1026.2 393.216 1035.11 L 393.344 1040.83 C 353.834 1041.64 361.231 1082.79 361.38 1110.98 L 318.676 1111.11 C 318.178 1096.91 317.879 1082.02 320.614 1068.01 z"/>
<path transform="translate(0,0)" fill="rgb(42,133,182)" d="M 320.614 1068.01 C 322.058 1057.41 330.043 1040.65 337.502 1032.74 C 354.654 1014.53 369.232 1008.63 393.341 1006.84 C 394.198 1015.75 394.039 1026.2 393.216 1035.11 C 373.019 1034.71 354.244 1035.04 337.964 1049.71 C 331.998 1055.09 326.597 1066.8 320.614 1068.01 z"/>
<path transform="translate(0,0)" fill="rgb(30,79,118)" d="M 1084.92 970.143 L 1111.09 970.302 C 1111.09 978.385 1111.17 986.468 1111.32 994.55 C 1118.62 994.357 1126.55 994.635 1133.91 994.757 L 1133.99 1017 C 1126.45 1016.73 1118.91 1016.77 1111.38 1017.11 C 1112.1 1031.57 1110.11 1046.53 1112.24 1060.96 C 1113.99 1072.81 1125.49 1067.11 1133.01 1065.53 C 1135.09 1067.84 1136.09 1072.84 1137.09 1076.16 C 1138.18 1079.54 1139.15 1083.21 1140.13 1086.64 C 1131.94 1090.19 1125.92 1091.56 1117.07 1091.93 C 1076.76 1093.62 1084.85 1043.31 1084.98 1016.6 L 1071.04 1016.26 L 1071.04 995.201 L 1084.96 994.044 C 1084.75 986.186 1084.89 978.03 1084.92 970.143 z"/>
<path transform="translate(0,0)" fill="rgb(83,167,91)" d="M 468.664 1001.71 C 469.924 1006.93 469.192 1038.14 469.122 1045.92 L 469.049 1110.99 L 427.199 1110.85 C 425.63 1104.61 426.739 1052.55 426.901 1043.3 C 448.969 1033.99 457.444 1021.98 468.664 1001.71 z"/>
<path transform="translate(0,0)" fill="rgb(42,133,182)" d="M 318.381 937.01 C 332.626 937.125 346.872 937.131 361.117 937.028 C 361.34 959.365 361.077 982.183 361.046 1004.56 C 347.814 1009.81 343.037 1013.4 333.186 1023.07 C 325.724 1030.07 321.864 1036.61 318.818 1046.24 C 317.635 1011.46 318.482 972.027 318.381 937.01 z"/>
<path transform="translate(0,0)" fill="rgb(30,79,118)" d="M 1033.08 956.422 C 1041.62 956.447 1051.04 956.7 1059.47 955.917 C 1059.17 970.242 1061.17 1085.67 1058.7 1089.75 L 1033.47 1089.65 C 1034.3 1075.48 1033.62 1054.34 1033.56 1039.93 C 1033.57 1012.09 1033.41 984.256 1033.08 956.422 z"/>
<path transform="translate(0,0)" fill="rgb(242,135,38)" d="M 605.813 977.633 L 606.444 978.147 C 616.369 986.073 626.861 987.626 638.796 991.618 C 639.36 998.775 642.702 1010.89 640.383 1015.33 C 636.764 1017.02 636.701 1016.11 631.764 1015.14 C 617.113 1011.28 605.435 1008.13 590.897 1003.46 C 595.298 994.369 601.55 987.107 605.813 977.633 z"/>
</svg>